<svg width="24" height="24" viewBox="0 0 24 24" fill="none" xmlns="http://www.w3.org/2000/svg">
<path d="M12.0037 14V12.3607M12.0037 14C10.3375 14 8.67133 13.8179 7.00515 13.4538M12.0037 14C13.6703 14 15.337 13.8181 17.0037 13.4538M7.00515 13.4538C5.73026 13.1751 4.45538 12.7899 3.18049 12.2981C2.67093 12.1015 2.41615 12.0032 2.24133 11.7781C1.95127 11.4046 2.00369 10.8844 2.00369 10.4395C2.00369 9.20798 2.00369 7.59221 2.30449 7.27064C2.87395 6.66187 3.96104 7.22221 4.59332 7.42707C9.53357 9.02777 14.4738 9.02777 19.4141 7.42707C20.0463 7.22221 21.1334 6.66187 21.7029 7.27064C22.0037 7.59221 22.0037 9.20798 22.0037 10.4395C22.0037 11.0572 22.0037 11.366 21.8677 11.6211C21.6587 12.013 21.2173 12.1474 20.8269 12.2981C19.5525 12.7897 18.2781 13.1752 17.0037 13.4538M7.00515 13.4538L7.00369 11.8141M17.0037 13.4538V11.8141" stroke="#141B34" stroke-width="1.5" stroke-linecap="round" stroke-linejoin="round"/>
<path d="M4.09218 3.23717C3.96119 2.84421 4.17356 2.41947 4.56652 2.28849C4.95948 2.1575 5.38422 2.36987 5.5152 2.76283L4.09218 3.23717ZM4.75369 21C4.75369 21.4142 4.41791 21.75 4.00369 21.75C3.58948 21.75 3.25369 21.4142 3.25369 21H4.75369ZM18.4922 2.76283C18.6232 2.36987 19.0479 2.1575 19.4409 2.28849C19.8338 2.41947 20.0462 2.84421 19.9152 3.23717L18.4922 2.76283ZM20.7537 21C20.7537 21.4142 20.4179 21.75 20.0037 21.75C19.5895 21.75 19.2537 21.4142 19.2537 21H20.7537ZM4.69911 15.2868C4.81686 14.8897 5.23425 14.6632 5.63137 14.7809C6.02849 14.8987 6.25497 15.3161 6.13722 15.7132L4.69911 15.2868ZM17.8702 15.7132C17.7524 15.3161 17.9789 14.8987 18.376 14.7809C18.7731 14.6632 19.1905 14.8897 19.3083 15.2868L17.8702 15.7132ZM18.8202 7.64482C18.7805 8.05713 18.4141 8.35921 18.0018 8.31953C17.5895 8.27985 17.2874 7.91344 17.3271 7.50113L18.8202 7.64482ZM6.6803 7.50113C6.71998 7.91344 6.4179 8.27985 6.00559 8.31953C5.59328 8.35921 5.22687 8.05713 5.1872 7.64482L6.6803 7.50113ZM6.13722 15.7132C5.98211 16.2363 5.81261 16.7039 5.6506 17.137C5.48615 17.5765 5.3353 17.9655 5.20092 18.3675C4.9394 19.15 4.75369 19.9454 4.75369 21H3.25369C3.25369 19.7435 3.48011 18.7842 3.77827 17.8921C3.92373 17.4568 4.08962 17.0285 4.24571 16.6113C4.40424 16.1876 4.55911 15.7589 4.69911 15.2868L6.13722 15.7132ZM19.3083 15.2868C19.4483 15.7589 19.6031 16.1876 19.7617 16.6113C19.9178 17.0285 20.0837 17.4568 20.2291 17.8921C20.5273 18.7842 20.7537 19.7435 20.7537 21H19.2537C19.2537 19.9454 19.068 19.15 18.8065 18.3675C18.6721 17.9655 18.5212 17.5765 18.3568 17.137C18.1948 16.7039 18.0253 16.2363 17.8702 15.7132L19.3083 15.2868ZM19.9152 3.23717C19.5914 4.20865 19.0558 5.19681 18.8202 7.64482L17.3271 7.50113C17.5837 4.83496 18.2055 3.62288 18.4922 2.76283L19.9152 3.23717ZM5.5152 2.76283C5.80189 3.62288 6.42372 4.83496 6.6803 7.50113L5.1872 7.64482C4.95161 5.19681 4.41601 4.20865 4.09218 3.23717L5.5152 2.76283Z" fill="#141B34"/>
<path d="M19.0037 19C14.337 20.3333 9.67036 20.3333 5.00369 19" stroke="#141B34" stroke-width="1.5" stroke-linecap="round" stroke-linejoin="round"/>
</svg>
