<svg width="24" height="24" viewBox="0 0 24 24" fill="none" xmlns="http://www.w3.org/2000/svg">
<path d="M6.74994 13.5C6.74994 13.0858 6.41415 12.75 5.99994 12.75C5.58573 12.75 5.24994 13.0858 5.24994 13.5H6.74994ZM10.6571 12.7742L9.96456 13.062V13.062L10.6571 12.7742ZM10.4909 15.0122L11.0878 15.4663L11.0878 15.4663L10.4909 15.0122ZM19.1716 17.2426L19.7019 17.773V17.773L19.1716 17.2426ZM20.5858 15.8284L20.0555 15.2981V15.2981L20.5858 15.8284ZM21.9999 14.0116L22.7499 14.0202V14.0202L21.9999 14.0116ZM21.6989 13.2848L21.1747 13.8212V13.8212L21.6989 13.2848ZM17.3196 18.7716L17.6066 19.4645L17.6066 19.4645L17.3196 18.7716ZM17.9999 12.25C17.5857 12.25 17.2499 12.5858 17.2499 13C17.2499 13.4142 17.5857 13.75 17.9999 13.75V12.25ZM8.49994 15.25C7.53344 15.25 6.74994 14.4665 6.74994 13.5H5.24994C5.24994 15.2949 6.70501 16.75 8.49994 16.75V15.25ZM6.49994 18.25C4.42887 18.25 2.74994 16.5711 2.74994 14.5H1.24994C1.24994 17.3995 3.60044 19.75 6.49994 19.75V18.25ZM2.74994 14.5C2.74994 12.4289 4.42887 10.75 6.49994 10.75V9.25C3.60044 9.25 1.24994 11.6005 1.24994 14.5H2.74994ZM6.49994 19.75H14.9289V18.25H6.49994V19.75ZM6.49994 10.75C8.06032 10.75 9.39983 11.7032 9.96456 13.062L11.3497 12.4864C10.5605 10.5875 8.6873 9.25 6.49994 9.25V10.75ZM9.89398 14.5581C9.57307 14.98 9.06818 15.25 8.49994 15.25V16.75C9.55654 16.75 10.4955 16.245 11.0878 15.4663L9.89398 14.5581ZM9.96456 13.062C10.2031 13.6359 10.1615 14.2065 9.89398 14.5581L11.0878 15.4663C11.7802 14.5561 11.7197 13.3765 11.3497 12.4864L9.96456 13.062ZM19.7019 17.773L21.1161 16.3588L20.0555 15.2981L18.6412 16.7123L19.7019 17.773ZM21.1161 16.3588C21.5744 15.9005 21.9582 15.5179 22.2223 15.1973C22.4696 14.8972 22.7443 14.5021 22.7499 14.0202L21.25 14.0029C21.2509 13.9284 21.2883 13.972 21.0646 14.2435C20.8577 14.4946 20.5368 14.8168 20.0555 15.2981L21.1161 16.3588ZM19.4142 13.75C20.0949 13.75 20.5496 13.7508 20.8735 13.7821C21.2237 13.8159 21.228 13.8733 21.1747 13.8212L22.2231 12.7483C21.8783 12.4115 21.4048 12.3264 21.0177 12.2891C20.6043 12.2492 20.0624 12.25 19.4142 12.25V13.75ZM22.7499 14.0202C22.7554 13.5421 22.5651 13.0825 22.2231 12.7483L21.1747 13.8212C21.2236 13.8689 21.2508 13.9346 21.25 14.0029L22.7499 14.0202ZM14.9289 19.75C16.094 19.75 16.8854 19.7633 17.6066 19.4645L17.0326 18.0787C16.6512 18.2367 16.2164 18.25 14.9289 18.25V19.75ZM18.6412 16.7123C17.7309 17.6227 17.4141 17.9207 17.0326 18.0787L17.6066 19.4645C18.3278 19.1658 18.8781 18.5968 19.7019 17.773L18.6412 16.7123ZM19.4142 12.25H17.9999V13.75H19.4142V12.25Z" fill="#141B34"/>
<path d="M10.4999 15L17.121 10.4933C17.3079 10.3543 17.4747 10.1902 17.6163 10.0061C18.1007 9.37595 18.0911 8.50194 17.784 7.77083C17.1008 6.14397 15.4795 5 13.5882 5C12.6545 5 11.7867 5.2788 11.065 5.75685L3.99994 10.7508" stroke="#141B34" stroke-width="1.5" stroke-linecap="round" stroke-linejoin="round"/>
</svg>
